<?xml version="1.0" standalone="no"?>
<!DOCTYPE svg PUBLIC "-//W3C//DTD SVG 20010904//EN"
 "http://www.w3.org/TR/2001/REC-SVG-20010904/DTD/svg10.dtd">
<svg version="1.0" xmlns="http://www.w3.org/2000/svg"
 width="200.000000pt" height="200.000000pt" viewBox="0 0 200.000000 200.000000"
 preserveAspectRatio="xMidYMid meet">
<metadata>
Created by potrace 1.14, written by Peter Selinger 2001-2017
</metadata>
<g transform="translate(0.000000,200.000000) scale(0.100000,-0.100000)"
fill="#000000" stroke="none">
<path d="M92 1078 l3 -612 295 -1 c188 0 300 3 309 10 11 7 13 7 8 -1 -3 -6 0
-11 8 -11 8 0 12 4 10 8 -6 9 16 25 35 25 8 -1 23 7 34 18 13 13 20 15 26 6 5
-8 9 -4 13 10 3 12 10 19 16 15 6 -3 11 1 11 9 0 15 12 21 33 17 5 -1 6 3 2 8
-7 12 25 52 37 45 4 -3 8 1 9 8 2 32 9 52 21 59 7 5 9 9 3 9 -5 0 -3 5 5 11
12 8 12 12 2 16 -10 4 -9 10 5 26 12 14 13 18 3 12 -12 -7 -13 -6 -4 6 6 8 14
31 17 52 5 35 4 37 -10 25 -15 -12 -15 -11 -5 9 16 29 15 36 -4 29 -14 -5 -15
-4 -4 9 10 12 10 15 -1 15 -12 0 -12 2 0 9 9 6 10 11 3 15 -6 4 -8 14 -5 23 5
12 2 15 -9 11 -11 -5 -15 0 -14 15 2 23 -36 67 -57 67 -7 0 -6 4 3 10 13 9 13
10 0 11 -8 1 -19 1 -23 0 -4 -1 -15 5 -23 14 -9 8 -12 15 -7 15 4 0 1 5 -7 10
-12 7 -10 11 10 19 14 5 21 10 16 10 -5 1 0 9 10 19 21 18 54 81 54 102 0 6 4
9 9 6 5 -3 11 1 14 8 3 8 1 17 -6 20 -9 3 -8 7 2 14 12 8 12 14 3 25 -7 7 -8
17 -4 21 10 11 9 30 -1 37 -5 4 -4 15 2 27 8 16 7 23 -7 33 -16 13 -16 12 -2
-6 14 -18 14 -19 -1 -7 -10 7 -16 24 -14 41 2 21 -1 28 -11 24 -9 -3 -14 2
-14 15 0 12 -5 24 -10 27 -6 4 -7 12 -3 18 4 8 1 8 -9 -1 -13 -11 -16 -10 -14
5 0 10 -5 17 -11 15 -7 -1 -13 5 -13 13 0 8 -9 15 -19 15 -11 0 -21 4 -23 10
-2 5 -15 11 -30 12 -15 1 -25 5 -22 9 5 9 -32 20 -81 24 -57 4 -57 4 -50 15 3
6 -1 10 -10 10 -12 0 -15 -5 -11 -17 6 -17 5 -17 -8 0 -13 17 -42 25 -32 9 3
-5 -1 -9 -9 -9 -8 0 -12 4 -9 8 2 4 -21 8 -51 8 -30 0 -53 -4 -51 -8 3 -4 -1
-8 -9 -8 -8 0 -12 4 -9 9 3 4 -6 8 -20 8 -13 0 -27 -6 -29 -12 -4 -10 -6 -10
-6 0 -1 6 -12 12 -25 12 -13 0 -27 -6 -29 -12 -4 -10 -6 -10 -6 0 -1 6 -12 12
-25 12 -13 0 -27 -6 -29 -12 -4 -10 -6 -10 -6 0 -1 6 -13 12 -27 12 -17 0 -23
-4 -18 -12 6 -10 4 -10 -7 0 -7 6 -30 12 -51 12 l-38 0 2 -612z m365 397 c23
0 45 4 49 8 4 4 16 -1 27 -10 15 -13 19 -14 13 -3 -7 13 -6 13 6 0 7 -8 31
-16 52 -18 39 -2 82 -35 70 -53 -3 -5 -1 -9 4 -9 11 0 28 -47 26 -70 -1 -8 -2
-25 -3 -38 -1 -15 -5 -21 -13 -16 -8 5 -9 2 -5 -10 4 -9 3 -14 -2 -11 -5 3
-12 1 -16 -5 -4 -6 -11 -8 -16 -5 -5 3 -6 -1 -3 -9 4 -11 0 -16 -15 -16 -12 0
-21 -5 -21 -11 0 -5 -4 -7 -10 -4 -5 3 -10 2 -10 -2 0 -5 -58 -8 -129 -8
l-128 0 -2 89 c-1 49 -4 93 -7 98 -3 4 1 8 8 8 9 0 9 3 -2 10 -11 7 -11 10 -2
10 10 0 10 5 2 20 -8 15 -8 20 2 20 10 0 10 2 -1 9 -11 7 -9 11 8 21 13 6 29
9 36 6 8 -3 17 0 21 6 4 6 9 6 13 1 3 -5 25 -9 48 -8z m38 -494 c-2 -4 22 -7
53 -8 97 0 113 -3 107 -13 -6 -10 3 -13 37 -13 9 0 17 -2 16 -6 -2 -21 3 -41
10 -37 5 3 9 0 9 -7 1 -7 4 -29 8 -51 4 -21 3 -36 -2 -33 -5 3 -7 -9 -5 -26 2
-25 -4 -39 -28 -64 -32 -34 -46 -42 -35 -20 4 6 0 4 -8 -5 -8 -10 -17 -15 -20
-11 -4 3 -7 2 -7 -4 0 -6 -11 -9 -25 -8 -18 2 -25 -2 -26 -13 0 -14 -2 -13 -9
3 -5 12 -9 14 -9 6 -1 -11 -6 -10 -23 5 -12 10 -18 13 -14 6 6 -9 1 -11 -18
-8 -14 3 -26 0 -26 -5 0 -5 -5 -9 -11 -9 -5 0 -7 4 -4 10 3 6 -1 7 -9 4 -9 -3
-16 -11 -16 -18 -1 -6 -7 0 -15 14 -14 25 -14 25 -15 3 0 -13 -5 -23 -11 -23
-5 0 -7 5 -4 10 4 6 -8 10 -30 10 l-36 0 2 155 c0 85 5 157 10 161 5 3 9 -1 9
-8 0 -9 3 -9 10 2 7 12 12 12 21 3 9 -9 16 -10 26 -2 7 7 13 7 13 2 0 -5 10
-9 23 -7 12 1 26 3 30 3 5 1 5 5 2 11 -3 6 1 7 9 4 9 -3 14 -9 11 -13z m75 13
c0 -8 -19 -13 -24 -6 -3 5 1 9 9 9 8 0 15 -2 15 -3z m-56 -332 c3 -5 -1 -9 -9
-9 -8 0 -12 4 -9 9 3 4 7 8 9 8 2 0 6 -4 9 -8z"/>
<path d="M1530 1291 c0 -4 -22 -5 -49 -4 -34 2 -50 -1 -54 -11 -3 -8 -17 -13
-36 -11 -17 1 -31 -2 -31 -7 0 -5 -4 -6 -10 -3 -5 3 -10 0 -10 -9 0 -15 -16
-16 -38 -2 -7 4 -12 4 -11 -1 4 -21 -2 -33 -16 -33 -8 0 -15 -4 -15 -9 0 -5
-13 -14 -30 -21 -16 -7 -27 -16 -24 -21 3 -5 -1 -12 -10 -15 -8 -3 -13 -14
-11 -25 2 -11 0 -17 -5 -14 -5 3 -14 -4 -20 -15 -6 -11 -7 -20 -3 -20 4 0 -2
-7 -13 -16 -10 -8 -12 -13 -4 -9 10 4 9 2 -2 -8 -10 -8 -14 -17 -10 -21 4 -4
0 -13 -8 -19 -13 -10 -15 -34 -14 -122 1 -137 2 -147 12 -141 8 4 12 -14 16
-61 0 -12 6 -21 11 -20 6 1 9 -4 7 -10 -1 -7 2 -13 8 -13 5 0 10 -7 10 -16 0
-8 5 -12 10 -9 6 3 10 -3 10 -14 0 -12 7 -21 15 -21 8 0 12 -6 9 -15 -4 -10 0
-13 14 -10 16 3 20 -1 17 -17 -4 -16 -2 -18 10 -8 12 10 15 9 15 -4 0 -10 5
-14 10 -11 6 3 10 1 10 -4 0 -6 9 -11 21 -11 13 0 18 -4 13 -12 -5 -8 -2 -9 9
-5 10 3 17 3 17 -1 0 -5 14 -7 30 -6 25 2 29 -1 20 -11 -10 -12 14 -14 139
-14 84 0 149 4 146 9 -7 11 19 20 45 15 11 -2 20 1 20 6 0 6 4 8 9 5 5 -3 12
1 15 9 3 8 9 15 13 14 4 -1 17 -1 28 0 17 1 18 3 5 11 -13 8 -12 10 3 10 10 0
20 7 24 16 3 8 12 13 19 10 8 -3 13 -2 13 2 -3 20 2 33 11 27 6 -3 10 -1 10 4
0 6 -5 11 -11 11 -5 0 -7 5 -4 10 4 6 2 9 -3 8 -5 -2 -21 9 -35 24 -14 15 -28
24 -33 20 -4 -4 -4 1 -1 10 11 32 -74 62 -91 32 -5 -9 -13 -17 -18 -17 -5 -1
-8 -4 -7 -7 1 -3 -9 -10 -23 -17 -18 -8 -22 -8 -18 0 5 9 4 9 -6 0 -7 -6 -19
-9 -28 -6 -10 4 -13 2 -8 -5 8 -13 -6 -15 -82 -14 -51 0 -76 8 -68 21 3 5 -3
7 -14 4 -11 -3 -20 0 -20 6 0 6 -7 11 -16 11 -8 0 -12 5 -9 10 3 6 -2 10 -11
10 -10 0 -14 3 -11 6 4 4 -3 15 -14 25 -11 9 -22 28 -24 41 l-5 23 293 0 292
0 3 93 c2 56 -1 91 -7 88 -12 -8 -20 15 -17 48 2 14 -1 23 -5 20 -5 -3 -9 2
-9 10 0 9 -5 16 -11 16 -6 0 -9 6 -6 14 3 8 -1 17 -9 20 -8 3 -14 10 -14 16 0
15 -46 60 -54 53 -3 -4 -6 -1 -6 6 0 16 -25 41 -40 41 -6 0 -8 5 -5 10 3 6 3
10 -2 11 -30 3 -48 9 -51 19 -2 5 -8 8 -13 4 -5 -3 -9 -1 -9 4 0 5 -12 9 -27
9 -37 1 -56 6 -65 17 -7 11 -48 16 -48 7z m44 -193 c-3 -4 8 -11 23 -14 15 -4
35 -15 44 -25 9 -10 20 -15 24 -11 5 4 5 -1 2 -10 -8 -24 2 -50 17 -41 6 3 8
3 4 -2 -4 -4 -3 -14 3 -21 19 -23 -21 -29 -178 -28 -81 1 -154 3 -160 3 -18 1
-10 41 11 56 11 8 13 15 7 20 -18 11 39 56 62 49 13 -4 17 -2 13 5 -4 6 2 14
13 19 28 10 121 10 115 0z m231 -426 c-3 -3 -11 0 -18 7 -9 10 -8 11 6 5 10
-3 15 -9 12 -12z"/>
</g>
</svg>
